<svg xmlns="http://www.w3.org/2000/svg" xmlns:xlink="http://www.w3.org/1999/xlink" width="400" zoomAndPan="magnify" viewBox="0 0 300 112.499997" height="150" preserveAspectRatio="xMidYMid meet" version="1.0"><defs><g/><clipPath id="0248c952f8"><path d="M 0.664062 0 L 299.335938 0 L 299.335938 112.003906 L 0.664062 112.003906 Z M 0.664062 0 " clip-rule="nonzero"/></clipPath><clipPath id="2dd9748186"><path d="M 214.285156 28.078125 L 266.78125 28.078125 L 266.78125 79.40625 L 214.285156 79.40625 Z M 214.285156 28.078125 " clip-rule="nonzero"/></clipPath></defs><g clip-path="url(#0248c952f8)"><path fill="#ffffff" d="M 0.664062 0 L 299.335938 0 L 299.335938 112.003906 L 0.664062 112.003906 Z M 0.664062 0 " fill-opacity="1" fill-rule="nonzero"/><path fill="#ffffff" d="M 0.664062 0 L 299.335938 0 L 299.335938 112.003906 L 0.664062 112.003906 Z M 0.664062 0 " fill-opacity="1" fill-rule="nonzero"/></g><g fill="#000000" fill-opacity="1"><g transform="translate(13.831075, 73.254919)"><g><path d="M 2.34375 8 L 11.5625 3.5 C 13.257812 6.289062 16.207031 7.6875 20.40625 7.6875 C 22.351562 7.6875 24.160156 7.0625 25.828125 5.8125 C 27.503906 4.5625 28.34375 2.644531 28.34375 0.0625 L 28.34375 -2.34375 C 26.351562 -0.144531 22.796875 0.953125 17.671875 0.953125 C 12.960938 0.953125 9.082031 -0.707031 6.03125 -4.03125 C 2.988281 -7.363281 1.46875 -11.441406 1.46875 -16.265625 C 1.46875 -21.097656 2.988281 -25.1875 6.03125 -28.53125 C 9.082031 -31.875 12.960938 -33.546875 17.671875 -33.546875 C 21.859375 -33.546875 25.351562 -32.253906 28.15625 -29.671875 L 28.34375 -29.671875 L 28.34375 -32.59375 L 39.59375 -32.59375 L 39.59375 0.890625 C 39.59375 6.179688 37.832031 10.265625 34.3125 13.140625 C 30.800781 16.023438 26.164062 17.46875 20.40625 17.46875 C 11.082031 17.46875 5.0625 14.3125 2.34375 8 Z M 15.59375 -21.796875 C 14.132812 -20.359375 13.40625 -18.515625 13.40625 -16.265625 C 13.40625 -14.023438 14.101562 -12.191406 15.5 -10.765625 C 16.90625 -9.347656 18.75 -8.640625 21.03125 -8.640625 C 23.238281 -8.640625 25.050781 -9.359375 26.46875 -10.796875 C 27.882812 -12.242188 28.59375 -14.066406 28.59375 -16.265625 C 28.59375 -18.515625 27.863281 -20.359375 26.40625 -21.796875 C 24.945312 -23.234375 23.15625 -23.953125 21.03125 -23.953125 C 18.875 -23.953125 17.0625 -23.234375 15.59375 -21.796875 Z M 15.59375 -21.796875 "/></g></g></g><g fill="#000000" fill-opacity="1"><g transform="translate(52.272871, 73.254919)"><g><path d="M 3.8125 0 L 3.8125 -32.59375 L 15.0625 -32.59375 L 15.0625 -27.890625 L 15.1875 -27.890625 C 15.269531 -28.066406 15.40625 -28.28125 15.59375 -28.53125 C 15.789062 -28.78125 16.207031 -29.222656 16.84375 -29.859375 C 17.476562 -30.492188 18.15625 -31.066406 18.875 -31.578125 C 19.59375 -32.085938 20.523438 -32.539062 21.671875 -32.9375 C 22.816406 -33.34375 23.984375 -33.546875 25.171875 -33.546875 C 26.390625 -33.546875 27.59375 -33.375 28.78125 -33.03125 C 29.96875 -32.695312 30.835938 -32.363281 31.390625 -32.03125 L 32.28125 -31.515625 L 27.578125 -21.984375 C 26.179688 -23.171875 24.234375 -23.765625 21.734375 -23.765625 C 20.378906 -23.765625 19.210938 -23.46875 18.234375 -22.875 C 17.265625 -22.28125 16.578125 -21.5625 16.171875 -20.71875 C 15.765625 -19.875 15.476562 -19.15625 15.3125 -18.5625 C 15.144531 -17.96875 15.0625 -17.5 15.0625 -17.15625 L 15.0625 0 Z M 3.8125 0 "/></g></g></g><g fill="#000000" fill-opacity="1"><g transform="translate(78.959667, 73.254919)"><g><path d="M 36.796875 -14.75 L 13.15625 -14.75 C 13.15625 -12.457031 13.894531 -10.757812 15.375 -9.65625 C 16.863281 -8.550781 18.472656 -8 20.203125 -8 C 22.023438 -8 23.46875 -8.242188 24.53125 -8.734375 C 25.59375 -9.222656 26.800781 -10.1875 28.15625 -11.625 L 36.28125 -7.5625 C 32.894531 -1.882812 27.257812 0.953125 19.375 0.953125 C 14.46875 0.953125 10.253906 -0.726562 6.734375 -4.09375 C 3.222656 -7.46875 1.46875 -11.523438 1.46875 -16.265625 C 1.46875 -21.015625 3.222656 -25.082031 6.734375 -28.46875 C 10.253906 -31.851562 14.46875 -33.546875 19.375 -33.546875 C 24.550781 -33.546875 28.757812 -32.050781 32 -29.0625 C 35.238281 -26.082031 36.859375 -21.816406 36.859375 -16.265625 C 36.859375 -15.503906 36.835938 -15 36.796875 -14.75 Z M 13.46875 -20.96875 L 25.859375 -20.96875 C 25.609375 -22.664062 24.941406 -23.96875 23.859375 -24.875 C 22.773438 -25.789062 21.390625 -26.25 19.703125 -26.25 C 17.835938 -26.25 16.351562 -25.757812 15.25 -24.78125 C 14.144531 -23.8125 13.550781 -22.539062 13.46875 -20.96875 Z M 13.46875 -20.96875 "/></g></g></g><g fill="#000000" fill-opacity="1"><g transform="translate(112.318218, 73.254919)"><g><path d="M 36.796875 -14.75 L 13.15625 -14.75 C 13.15625 -12.457031 13.894531 -10.757812 15.375 -9.65625 C 16.863281 -8.550781 18.472656 -8 20.203125 -8 C 22.023438 -8 23.46875 -8.242188 24.53125 -8.734375 C 25.59375 -9.222656 26.800781 -10.1875 28.15625 -11.625 L 36.28125 -7.5625 C 32.894531 -1.882812 27.257812 0.953125 19.375 0.953125 C 14.46875 0.953125 10.253906 -0.726562 6.734375 -4.09375 C 3.222656 -7.46875 1.46875 -11.523438 1.46875 -16.265625 C 1.46875 -21.015625 3.222656 -25.082031 6.734375 -28.46875 C 10.253906 -31.851562 14.46875 -33.546875 19.375 -33.546875 C 24.550781 -33.546875 28.757812 -32.050781 32 -29.0625 C 35.238281 -26.082031 36.859375 -21.816406 36.859375 -16.265625 C 36.859375 -15.503906 36.835938 -15 36.796875 -14.75 Z M 13.46875 -20.96875 L 25.859375 -20.96875 C 25.609375 -22.664062 24.941406 -23.96875 23.859375 -24.875 C 22.773438 -25.789062 21.390625 -26.25 19.703125 -26.25 C 17.835938 -26.25 16.351562 -25.757812 15.25 -24.78125 C 14.144531 -23.8125 13.550781 -22.539062 13.46875 -20.96875 Z M 13.46875 -20.96875 "/></g></g></g><g fill="#000000" fill-opacity="1"><g transform="translate(145.676774, 73.254919)"><g><path d="M 3.8125 0 L 3.8125 -32.59375 L 15.0625 -32.59375 L 15.0625 -29.171875 L 15.1875 -29.171875 C 18.113281 -32.085938 21.226562 -33.546875 24.53125 -33.546875 C 26.132812 -33.546875 27.726562 -33.332031 29.3125 -32.90625 C 30.90625 -32.488281 32.429688 -31.832031 33.890625 -30.9375 C 35.359375 -30.050781 36.546875 -28.789062 37.453125 -27.15625 C 38.367188 -25.53125 38.828125 -23.640625 38.828125 -21.484375 L 38.828125 0 L 27.578125 0 L 27.578125 -18.421875 C 27.578125 -20.117188 27.035156 -21.601562 25.953125 -22.875 C 24.878906 -24.144531 23.472656 -24.78125 21.734375 -24.78125 C 20.035156 -24.78125 18.5 -24.125 17.125 -22.8125 C 15.75 -21.5 15.0625 -20.035156 15.0625 -18.421875 L 15.0625 0 Z M 3.8125 0 "/></g></g></g><g fill="#000000" fill-opacity="1"><g transform="translate(182.720688, 73.254919)"><g><path d="M 11.0625 -13.59375 C 13.09375 -13.59375 14.816406 -12.882812 16.234375 -11.46875 C 17.648438 -10.050781 18.359375 -8.328125 18.359375 -6.296875 C 18.359375 -4.296875 17.648438 -2.585938 16.234375 -1.171875 C 14.816406 0.242188 13.09375 0.953125 11.0625 0.953125 C 9.070312 0.953125 7.363281 0.242188 5.9375 -1.171875 C 4.519531 -2.585938 3.8125 -4.296875 3.8125 -6.296875 C 3.8125 -8.328125 4.519531 -10.050781 5.9375 -11.46875 C 7.363281 -12.882812 9.070312 -13.59375 11.0625 -13.59375 Z M 11.0625 -13.59375 "/></g></g></g><g fill="#000000" fill-opacity="1"><g transform="translate(199.939927, 73.254919)"><g><path d="M 6.03125 -4.03125 C 2.988281 -7.363281 1.46875 -11.441406 1.46875 -16.265625 C 1.46875 -21.097656 2.988281 -25.1875 6.03125 -28.53125 C 9.082031 -31.875 12.960938 -33.546875 17.671875 -33.546875 C 21.984375 -33.546875 25.539062 -32.191406 28.34375 -29.484375 L 28.34375 -54.65625 L 39.59375 -54.65625 L 39.59375 0 L 28.46875 0 L 28.46875 -3.6875 L 28.34375 -3.6875 C 25.539062 -0.59375 21.984375 0.953125 17.671875 0.953125 C 12.960938 0.953125 9.082031 -0.707031 6.03125 -4.03125 Z M 15.59375 -21.796875 C 14.132812 -20.359375 13.40625 -18.515625 13.40625 -16.265625 C 13.40625 -14.023438 14.101562 -12.191406 15.5 -10.765625 C 16.90625 -9.347656 18.75 -8.640625 21.03125 -8.640625 C 23.238281 -8.640625 25.050781 -9.359375 26.46875 -10.796875 C 27.882812 -12.242188 28.59375 -14.066406 28.59375 -16.265625 C 28.59375 -18.515625 27.863281 -20.359375 26.40625 -21.796875 C 24.945312 -23.234375 23.15625 -23.953125 21.03125 -23.953125 C 18.875 -23.953125 17.0625 -23.234375 15.59375 -21.796875 Z M 15.59375 -21.796875 "/></g></g></g><g fill="#000000" fill-opacity="1"><g transform="translate(238.381726, 73.254919)"><g><path d="M 37.359375 -28.53125 C 40.410156 -25.1875 41.9375 -21.097656 41.9375 -16.265625 C 41.9375 -11.441406 40.410156 -7.363281 37.359375 -4.03125 C 34.316406 -0.707031 30.441406 0.953125 25.734375 0.953125 C 21.410156 0.953125 17.851562 -0.59375 15.0625 -3.6875 L 14.9375 -3.6875 L 14.9375 0 L 3.8125 0 L 3.8125 -54.65625 L 15.0625 -54.65625 L 15.0625 -29.484375 C 17.851562 -32.191406 21.410156 -33.546875 25.734375 -33.546875 C 30.441406 -33.546875 34.316406 -31.875 37.359375 -28.53125 Z M 27.890625 -10.765625 C 29.296875 -12.191406 30 -14.023438 30 -16.265625 C 30 -18.515625 29.265625 -20.359375 27.796875 -21.796875 C 26.335938 -23.234375 24.53125 -23.953125 22.375 -23.953125 C 20.25 -23.953125 18.457031 -23.234375 17 -21.796875 C 15.539062 -20.359375 14.8125 -18.515625 14.8125 -16.265625 C 14.8125 -14.066406 15.519531 -12.242188 16.9375 -10.796875 C 18.351562 -9.359375 20.164062 -8.640625 22.375 -8.640625 C 24.65625 -8.640625 26.492188 -9.347656 27.890625 -10.765625 Z M 27.890625 -10.765625 "/></g></g></g><g clip-path="url(#2dd9748186)"><path fill="#5b8c5a" d="M 240.953125 79.167969 L 240.953125 71.632812 C 243.742188 58.734375 246.621094 55.867188 259.539062 53.074219 L 266.78125 53.074219 L 266.78125 52.121094 L 259.464844 52.121094 C 246.609375 49.335938 243.738281 46.453125 240.953125 33.578125 L 240.953125 28.082031 L 240 28.082031 L 240 33.578125 C 237.214844 46.453125 234.339844 49.335938 221.488281 52.121094 L 214.304688 52.121094 L 214.304688 53.074219 L 221.410156 53.074219 C 234.328125 55.867188 237.207031 58.734375 240 71.632812 L 240 79.167969 Z M 240.953125 79.167969 " fill-opacity="1" fill-rule="nonzero"/></g></svg>