<svg xmlns="http://www.w3.org/2000/svg" xmlns:xlink="http://www.w3.org/1999/xlink" width="500" zoomAndPan="magnify" viewBox="0 0 375 374.999991" height="500" preserveAspectRatio="xMidYMid meet" version="1.0"><defs><g/><clipPath id="38c7d25b0a"><path d="M 272.589844 147.394531 L 331.839844 147.394531 L 331.839844 205.144531 L 272.589844 205.144531 Z M 272.589844 147.394531 " clip-rule="nonzero"/></clipPath></defs><rect x="-37.5" width="450" fill="#ffffff" y="-37.499999" height="449.999989" fill-opacity="1"/><rect x="-37.5" width="450" fill="#ffffff" y="-37.499999" height="449.999989" fill-opacity="1"/><g fill="#000000" fill-opacity="1"><g transform="translate(44.703206, 198.681769)"><g><path d="M 2.671875 9.09375 L 13.125 3.96875 C 15.050781 7.144531 18.394531 8.734375 23.15625 8.734375 C 25.363281 8.734375 27.414062 8.019531 29.3125 6.59375 C 31.21875 5.175781 32.171875 3.003906 32.171875 0.078125 L 32.171875 -2.671875 C 29.910156 -0.171875 25.867188 1.078125 20.046875 1.078125 C 14.710938 1.078125 10.3125 -0.804688 6.84375 -4.578125 C 3.382812 -8.347656 1.65625 -12.972656 1.65625 -18.453125 C 1.65625 -23.941406 3.382812 -28.582031 6.84375 -32.375 C 10.3125 -36.175781 14.710938 -38.078125 20.046875 -38.078125 C 24.804688 -38.078125 28.773438 -36.613281 31.953125 -33.6875 L 32.171875 -33.6875 L 32.171875 -37 L 44.9375 -37 L 44.9375 1.015625 C 44.9375 7.023438 42.941406 11.660156 38.953125 14.921875 C 34.960938 18.191406 29.695312 19.828125 23.15625 19.828125 C 12.570312 19.828125 5.742188 16.25 2.671875 9.09375 Z M 17.703125 -24.734375 C 16.046875 -23.097656 15.21875 -21.003906 15.21875 -18.453125 C 15.21875 -15.910156 16.007812 -13.832031 17.59375 -12.21875 C 19.1875 -10.613281 21.28125 -9.8125 23.875 -9.8125 C 26.375 -9.8125 28.425781 -10.628906 30.03125 -12.265625 C 31.644531 -13.898438 32.453125 -15.96875 32.453125 -18.46875 C 32.453125 -21.007812 31.625 -23.097656 29.96875 -24.734375 C 28.3125 -26.367188 26.28125 -27.1875 23.875 -27.1875 C 21.414062 -27.1875 19.359375 -26.367188 17.703125 -24.734375 Z M 17.703125 -24.734375 "/></g></g></g><g fill="#000000" fill-opacity="1"><g transform="translate(88.339605, 198.681769)"><g><path d="M 4.328125 0 L 4.328125 -37 L 17.09375 -37 L 17.09375 -31.65625 L 17.234375 -31.65625 C 17.328125 -31.851562 17.484375 -32.09375 17.703125 -32.375 C 17.921875 -32.664062 18.390625 -33.171875 19.109375 -33.890625 C 19.828125 -34.617188 20.59375 -35.269531 21.40625 -35.84375 C 22.226562 -36.425781 23.289062 -36.941406 24.59375 -37.390625 C 25.894531 -37.847656 27.21875 -38.078125 28.5625 -38.078125 C 29.957031 -38.078125 31.328125 -37.882812 32.671875 -37.5 C 34.015625 -37.113281 35 -36.726562 35.625 -36.34375 L 36.640625 -35.78125 L 31.296875 -24.953125 C 29.710938 -26.296875 27.503906 -26.96875 24.671875 -26.96875 C 23.128906 -26.96875 21.804688 -26.628906 20.703125 -25.953125 C 19.597656 -25.285156 18.816406 -24.46875 18.359375 -23.5 C 17.898438 -22.539062 17.570312 -21.722656 17.375 -21.046875 C 17.1875 -20.378906 17.09375 -19.851562 17.09375 -19.46875 L 17.09375 0 Z M 4.328125 0 "/></g></g></g><g fill="#000000" fill-opacity="1"><g transform="translate(118.632562, 198.681769)"><g><path d="M 41.765625 -16.734375 L 14.9375 -16.734375 C 14.9375 -14.140625 15.773438 -12.21875 17.453125 -10.96875 C 19.140625 -9.71875 20.96875 -9.09375 22.9375 -9.09375 C 25 -9.09375 26.628906 -9.367188 27.828125 -9.921875 C 29.035156 -10.472656 30.410156 -11.566406 31.953125 -13.203125 L 41.1875 -8.578125 C 37.332031 -2.140625 30.9375 1.078125 22 1.078125 C 16.414062 1.078125 11.628906 -0.832031 7.640625 -4.65625 C 3.648438 -8.476562 1.65625 -13.082031 1.65625 -18.46875 C 1.65625 -23.851562 3.648438 -28.46875 7.640625 -32.3125 C 11.628906 -36.15625 16.414062 -38.078125 22 -38.078125 C 27.863281 -38.078125 32.632812 -36.378906 36.3125 -32.984375 C 39.988281 -29.597656 41.828125 -24.757812 41.828125 -18.46875 C 41.828125 -17.601562 41.804688 -17.023438 41.765625 -16.734375 Z M 15.296875 -23.796875 L 29.359375 -23.796875 C 29.066406 -25.722656 28.304688 -27.203125 27.078125 -28.234375 C 25.859375 -29.265625 24.285156 -29.78125 22.359375 -29.78125 C 20.242188 -29.78125 18.5625 -29.226562 17.3125 -28.125 C 16.0625 -27.019531 15.390625 -25.578125 15.296875 -23.796875 Z M 15.296875 -23.796875 "/></g></g></g><g fill="#000000" fill-opacity="1"><g transform="translate(156.498822, 198.681769)"><g><path d="M 41.765625 -16.734375 L 14.9375 -16.734375 C 14.9375 -14.140625 15.773438 -12.21875 17.453125 -10.96875 C 19.140625 -9.71875 20.96875 -9.09375 22.9375 -9.09375 C 25 -9.09375 26.628906 -9.367188 27.828125 -9.921875 C 29.035156 -10.472656 30.410156 -11.566406 31.953125 -13.203125 L 41.1875 -8.578125 C 37.332031 -2.140625 30.9375 1.078125 22 1.078125 C 16.414062 1.078125 11.628906 -0.832031 7.640625 -4.65625 C 3.648438 -8.476562 1.65625 -13.082031 1.65625 -18.46875 C 1.65625 -23.851562 3.648438 -28.46875 7.640625 -32.3125 C 11.628906 -36.15625 16.414062 -38.078125 22 -38.078125 C 27.863281 -38.078125 32.632812 -36.378906 36.3125 -32.984375 C 39.988281 -29.597656 41.828125 -24.757812 41.828125 -18.46875 C 41.828125 -17.601562 41.804688 -17.023438 41.765625 -16.734375 Z M 15.296875 -23.796875 L 29.359375 -23.796875 C 29.066406 -25.722656 28.304688 -27.203125 27.078125 -28.234375 C 25.859375 -29.265625 24.285156 -29.78125 22.359375 -29.78125 C 20.242188 -29.78125 18.5625 -29.226562 17.3125 -28.125 C 16.0625 -27.019531 15.390625 -25.578125 15.296875 -23.796875 Z M 15.296875 -23.796875 "/></g></g></g><g fill="#000000" fill-opacity="1"><g transform="translate(194.365088, 198.681769)"><g><path d="M 4.328125 0 L 4.328125 -37 L 17.09375 -37 L 17.09375 -33.109375 L 17.234375 -33.109375 C 20.554688 -36.421875 24.09375 -38.078125 27.84375 -38.078125 C 29.664062 -38.078125 31.476562 -37.835938 33.28125 -37.359375 C 35.082031 -36.878906 36.8125 -36.132812 38.46875 -35.125 C 40.132812 -34.113281 41.484375 -32.679688 42.515625 -30.828125 C 43.546875 -28.984375 44.0625 -26.832031 44.0625 -24.375 L 44.0625 0 L 31.296875 0 L 31.296875 -20.921875 C 31.296875 -22.835938 30.679688 -24.515625 29.453125 -25.953125 C 28.234375 -27.398438 26.640625 -28.125 24.671875 -28.125 C 22.742188 -28.125 21 -27.378906 19.4375 -25.890625 C 17.875 -24.398438 17.09375 -22.742188 17.09375 -20.921875 L 17.09375 0 Z M 4.328125 0 "/></g></g></g><g fill="#000000" fill-opacity="1"><g transform="translate(236.41471, 198.681769)"><g><path d="M 12.546875 -15.4375 C 14.859375 -15.4375 16.816406 -14.628906 18.421875 -13.015625 C 20.035156 -11.410156 20.84375 -9.453125 20.84375 -7.140625 C 20.84375 -4.878906 20.035156 -2.941406 18.421875 -1.328125 C 16.816406 0.273438 14.859375 1.078125 12.546875 1.078125 C 10.285156 1.078125 8.347656 0.273438 6.734375 -1.328125 C 5.128906 -2.941406 4.328125 -4.878906 4.328125 -7.140625 C 4.328125 -9.453125 5.128906 -11.410156 6.734375 -13.015625 C 8.347656 -14.628906 10.285156 -15.4375 12.546875 -15.4375 Z M 12.546875 -15.4375 "/></g></g></g><g fill="#000000" fill-opacity="1"><g transform="translate(255.960768, 198.681769)"><g><path d="M 6.84375 -4.578125 C 3.382812 -8.347656 1.65625 -12.972656 1.65625 -18.453125 C 1.65625 -23.941406 3.382812 -28.582031 6.84375 -32.375 C 10.3125 -36.175781 14.710938 -38.078125 20.046875 -38.078125 C 24.953125 -38.078125 28.992188 -36.539062 32.171875 -33.46875 L 32.171875 -62.03125 L 44.9375 -62.03125 L 44.9375 0 L 32.3125 0 L 32.3125 -4.1875 L 32.171875 -4.1875 C 28.992188 -0.675781 24.953125 1.078125 20.046875 1.078125 C 14.710938 1.078125 10.3125 -0.804688 6.84375 -4.578125 Z M 17.703125 -24.734375 C 16.046875 -23.097656 15.21875 -21.003906 15.21875 -18.453125 C 15.21875 -15.910156 16.007812 -13.832031 17.59375 -12.21875 C 19.1875 -10.613281 21.28125 -9.8125 23.875 -9.8125 C 26.375 -9.8125 28.425781 -10.628906 30.03125 -12.265625 C 31.644531 -13.898438 32.453125 -15.96875 32.453125 -18.46875 C 32.453125 -21.007812 31.625 -23.097656 29.96875 -24.734375 C 28.3125 -26.367188 26.28125 -27.1875 23.875 -27.1875 C 21.414062 -27.1875 19.359375 -26.367188 17.703125 -24.734375 Z M 17.703125 -24.734375 "/></g></g></g><g fill="#000000" fill-opacity="1"><g transform="translate(299.59717, 198.681769)"><g><path d="M 42.40625 -32.375 C 45.875 -28.582031 47.609375 -23.941406 47.609375 -18.453125 C 47.609375 -12.972656 45.875 -8.347656 42.40625 -4.578125 C 38.945312 -0.804688 34.546875 1.078125 29.203125 1.078125 C 24.304688 1.078125 20.269531 -0.675781 17.09375 -4.1875 L 16.953125 -4.1875 L 16.953125 0 L 4.328125 0 L 4.328125 -62.03125 L 17.09375 -62.03125 L 17.09375 -33.46875 C 20.269531 -36.539062 24.304688 -38.078125 29.203125 -38.078125 C 34.546875 -38.078125 38.945312 -36.175781 42.40625 -32.375 Z M 31.65625 -12.21875 C 33.25 -13.832031 34.046875 -15.910156 34.046875 -18.453125 C 34.046875 -21.003906 33.210938 -23.097656 31.546875 -24.734375 C 29.890625 -26.367188 27.835938 -27.1875 25.390625 -27.1875 C 22.984375 -27.1875 20.953125 -26.367188 19.296875 -24.734375 C 17.640625 -23.097656 16.8125 -21.007812 16.8125 -18.46875 C 16.8125 -15.96875 17.613281 -13.898438 19.21875 -12.265625 C 20.832031 -10.628906 22.890625 -9.8125 25.390625 -9.8125 C 27.984375 -9.8125 30.070312 -10.613281 31.65625 -12.21875 Z M 31.65625 -12.21875 "/></g></g></g><g clip-path="url(#38c7d25b0a)"><path fill="#5b8c5a" d="M 302.519531 205.390625 L 302.519531 196.839844 C 305.691406 182.199219 308.957031 178.941406 323.621094 175.773438 L 331.839844 175.773438 L 331.839844 174.691406 L 323.535156 174.691406 C 308.945312 171.53125 305.683594 168.257812 302.519531 153.644531 L 302.519531 147.40625 L 301.4375 147.40625 L 301.4375 153.644531 C 298.277344 168.257812 295.015625 171.53125 280.425781 174.691406 L 272.273438 174.691406 L 272.273438 175.773438 L 280.339844 175.773438 C 295.003906 178.941406 298.269531 182.199219 301.4375 196.839844 L 301.4375 205.390625 Z M 302.519531 205.390625 " fill-opacity="1" fill-rule="nonzero"/></g></svg>